<?xml version="1.0" standalone="no"?>
<!DOCTYPE svg PUBLIC "-//W3C//DTD SVG 20010904//EN"
 "http://www.w3.org/TR/2001/REC-SVG-20010904/DTD/svg10.dtd">
<svg version="1.0" xmlns="http://www.w3.org/2000/svg"
 width="1600.000000pt" height="500.000000pt" viewBox="0 0 1600.000000 500.000000"
 preserveAspectRatio="xMidYMid meet">

<g transform="translate(0.000000,500.000000) scale(0.100000,-0.100000)"
fill="#000000" stroke="none">
<path d="M7869 4345 c-162 -31 -303 -87 -423 -168 -72 -48 -193 -163 -231
-217 -15 -22 -30 -40 -34 -39 -3 0 -26 32 -51 71 -121 189 -314 302 -560 328
-131 13 -1003 13 -1051 0 -38 -11 -83 -52 -94 -87 -7 -24 -20 -30 -30 -13 -10
16 -366 12 -388 -4 -27 -21 -34 -54 -63 -303 -25 -207 -30 -233 -46 -233 -10
0 -18 3 -18 8 0 4 14 115 30 247 29 235 29 241 11 265 l-18 25 -194 -1 c-107
-1 -198 -1 -204 -1 -524 7 -940 6 -951 -3 -9 -8 -18 -8 -34 0 -13 7 -80 9
-203 7 -219 -5 -167 -5 -382 0 -197 4 -220 2 -235 -26 -5 -11 -26 -93 -45
-182 -20 -90 -38 -165 -40 -168 -3 -2 -5 73 -5 167 0 225 11 212 -188 212
-115 0 -152 -3 -169 -15 -17 -12 -30 -52 -63 -187 -23 -95 -42 -174 -43 -175
-1 -1 -1 74 1 167 5 225 21 210 -224 210 -193 0 -219 -5 -233 -43 -5 -13 12
-304 44 -732 52 -686 54 -710 75 -727 19 -16 44 -18 187 -18 157 0 165 1 186
23 17 17 32 64 62 202 l40 180 5 -183 c6 -236 -6 -222 204 -222 83 0 161 3
174 6 12 4 29 18 36 33 7 14 91 281 187 593 95 312 174 566 175 565 1 -1 -29
-256 -68 -567 -38 -310 -67 -574 -64 -586 10 -38 50 -46 234 -42 156 3 173 5
192 23 17 18 27 85 85 554 36 294 66 535 68 535 1 1 55 0 119 -2 l117 -3 -4
-27 c-8 -43 -125 -1005 -125 -1024 0 -10 10 -26 22 -38 20 -19 34 -20 199 -20
170 0 179 1 204 23 25 22 27 31 90 545 36 288 65 528 65 533 0 5 54 9 120 9
66 0 120 -3 120 -6 0 -3 -27 -227 -60 -498 -34 -270 -61 -509 -62 -530 -1 -70
15 -76 221 -76 190 0 213 5 225 53 3 13 17 118 31 233 32 268 33 274 50 274
20 0 19 -12 -10 -240 -33 -256 -34 -279 -5 -302 20 -16 43 -18 202 -18 177 0
179 0 203 25 14 13 25 28 25 33 0 5 36 303 80 661 44 359 80 657 80 662 0 14
57 11 62 -3 3 -7 -12 -148 -33 -313 -20 -165 -58 -477 -85 -692 l-47 -393
-438 0 c-404 0 -438 -1 -459 -18 -18 -15 -24 -36 -36 -127 -15 -120 -9 -231
12 -239 7 -3 58 -8 114 -12 87 -6 100 -9 100 -25 0 -19 -106 -889 -116 -951
-5 -31 -1 -42 20 -63 25 -25 26 -25 196 -25 165 0 172 1 194 23 27 27 20 -14
92 569 l57 466 114 4 c149 4 154 9 173 164 7 60 16 111 21 114 4 3 51 361 104
795 53 435 98 796 101 803 3 11 94 13 512 9 432 -3 517 -7 571 -21 107 -28
187 -72 267 -149 61 -57 83 -87 121 -164 l47 -94 -26 -77 c-40 -115 -54 -190
-93 -502 -19 -157 -38 -302 -41 -322 -12 -77 -144 -202 -288 -275 -117 -59
-196 -74 -422 -82 -208 -6 -222 -9 -244 -52 -12 -22 -8 9 -75 -539 -31 -250
-58 -465 -60 -477 l-5 -23 -300 0 c-279 0 -300 1 -300 18 0 19 86 734 96 795
l6 37 -76 0 c-70 0 -76 -2 -80 -22 -3 -13 -28 -213 -56 -445 -47 -391 -50
-424 -36 -457 8 -20 30 -45 48 -56 31 -19 50 -20 393 -20 339 0 362 1 392 20
18 10 40 34 49 52 12 23 35 180 78 523 l61 490 175 6 c96 3 195 11 220 17 121
30 226 78 328 148 55 39 62 41 57 21 -15 -66 -45 -394 -45 -487 0 -359 167
-624 477 -754 303 -128 748 -79 1031 113 164 111 302 284 375 471 46 117 66
223 107 556 22 180 42 329 44 331 1 2 8 -70 15 -159 6 -90 23 -305 37 -478 13
-173 33 -421 42 -551 14 -188 22 -242 36 -264 34 -52 57 -55 407 -55 305 0
323 1 354 20 18 11 40 35 48 53 9 18 55 206 102 417 48 212 88 386 90 388 1 2
5 -174 7 -390 3 -353 5 -396 21 -426 32 -59 50 -62 404 -62 298 0 320 1 350
20 18 10 40 31 50 47 10 15 118 351 240 748 122 396 222 712 222 703 1 -9 -22
-203 -49 -430 -98 -809 -110 -914 -110 -961 0 -56 24 -98 67 -116 21 -8 327
-11 1165 -9 l1136 3 27 25 c15 14 33 36 40 50 7 14 28 144 46 288 18 144 34
261 35 259 2 -2 17 -119 34 -260 16 -141 36 -273 44 -292 8 -19 30 -44 48 -55
32 -19 49 -20 403 -20 349 0 372 1 402 20 39 23 63 67 63 112 -1 18 -40 292
-89 608 l-88 575 68 63 c93 86 151 167 215 297 92 188 131 382 121 600 -7 158
-31 257 -91 380 -94 192 -245 324 -439 384 -131 40 -224 42 -1869 39 -1575 -3
-1577 -3 -1605 -24 -15 -11 -36 -36 -45 -55 -9 -19 -46 -169 -82 -334 -37
-165 -72 -322 -79 -350 -10 -43 -13 -2 -17 310 -6 411 -6 410 -83 440 -37 14
-82 16 -323 13 -247 -3 -283 -5 -307 -21 -54 -35 -54 -35 -177 -551 -28 -116
-53 -212 -55 -215 -3 -3 -2 148 1 335 7 374 5 393 -52 431 -26 17 -57 18 -409
18 -347 0 -383 -2 -408 -18 -49 -32 -61 -61 -59 -151 l2 -82 -57 54 c-106 101
-226 165 -375 203 -110 27 -368 35 -479 14z m454 -164 c175 -46 326 -163 400
-311 97 -195 96 -273 -7 -1105 -42 -341 -85 -657 -96 -703 -64 -271 -233 -483
-475 -598 -148 -69 -241 -89 -430 -89 -135 1 -173 4 -245 24 -115 31 -212 83
-293 160 -121 114 -175 243 -184 441 -6 118 0 180 52 559 l25 185 65 130 c97
199 135 361 135 584 0 73 -5 164 -11 201 -11 66 -11 70 16 120 40 72 131 177
204 234 71 56 208 129 290 153 152 47 405 54 554 15z m1230 -8 c3 -5 1 -208
-4 -453 -4 -245 -9 -539 -9 -654 -1 -203 -1 -209 21 -232 31 -33 87 -33 121 0
20 20 34 67 78 253 29 125 99 422 155 658 l102 430 239 0 239 0 2 -525 c1
-289 5 -585 9 -659 6 -123 8 -136 30 -158 32 -32 83 -31 116 2 20 20 32 58 67
227 78 369 231 1083 237 1101 5 16 26 17 258 17 139 0 255 -2 258 -5 2 -3 1
-33 -4 -68 -5 -34 -20 -143 -33 -242 l-24 -180 -326 -1060 c-179 -583 -337
-1097 -351 -1143 l-25 -82 -272 2 -272 3 -5 692 -5 692 -22 23 c-31 30 -87 28
-119 -4 -21 -20 -45 -117 -179 -713 -85 -379 -155 -690 -155 -692 0 -2 -123
-3 -274 -3 l-273 0 -7 68 c-3 37 -28 375 -56 752 -69 950 -108 1474 -125 1685
-8 99 -15 201 -15 228 l0 47 309 0 c171 0 312 -3 314 -7z m3458 -38 c-1 -22
-15 -137 -30 -255 l-26 -215 -368 -5 -367 -5 -26 -27 c-25 -25 -29 -39 -55
-250 -16 -123 -29 -233 -29 -246 0 -13 13 -37 29 -53 l29 -29 212 0 211 0 -5
-32 c-16 -102 -28 -188 -41 -308 -9 -74 -18 -145 -20 -157 -5 -23 -5 -23 -224
-23 -216 0 -218 0 -244 -24 -14 -13 -28 -39 -31 -57 -18 -102 -56 -455 -51
-470 4 -10 18 -28 32 -39 25 -19 39 -20 381 -20 l355 0 -6 -42 c-3 -24 -17
-137 -32 -252 -14 -116 -28 -214 -31 -218 -7 -11 -1384 -10 -1384 0 0 12 126
1039 210 1705 l69 558 55 177 c30 97 62 204 71 237 9 33 21 68 26 78 9 16 48
17 652 15 l642 -3 -4 -40z m1269 16 c97 -29 161 -64 228 -125 145 -133 213
-310 213 -555 0 -175 -25 -297 -93 -455 -48 -111 -95 -175 -209 -287 -60 -58
-109 -110 -109 -115 0 -5 41 -274 90 -599 50 -324 90 -595 90 -602 0 -10 -66
-13 -309 -13 l-309 0 -6 27 c-3 16 -19 152 -36 303 -82 741 -81 734 -99 760
-23 33 -63 47 -97 34 -59 -20 -59 -23 -129 -583 -36 -288 -68 -528 -71 -532
-5 -9 -507 -13 -516 -4 -2 3 6 87 18 187 48 398 48 396 0 447 l-24 26 83 675
c46 371 87 695 91 720 5 34 15 52 40 73 19 16 39 37 45 48 10 20 69 457 69
516 0 17 5 44 10 58 l10 26 473 -3 c455 -4 475 -5 547 -27z m-12215 -321 c-8
-343 -7 -350 41 -350 16 0 28 8 34 23 6 12 42 155 80 317 39 162 73 303 76
313 5 15 19 17 118 17 l113 0 7 -322 c6 -250 10 -326 21 -337 19 -20 63 -6 70
22 3 12 35 159 71 327 36 168 67 306 69 308 1 1 67 1 147 0 l144 -3 -183 -595
c-100 -327 -194 -632 -208 -677 l-26 -83 -134 0 -135 0 0 338 c0 250 -3 341
-12 350 -20 20 -57 14 -69 -10 -5 -13 -43 -169 -83 -348 l-73 -325 -136 -3
-137 -3 0 30 c0 37 -88 1230 -95 1289 l-5 42 156 0 156 0 -7 -320z m1405 308
c0 -7 -36 -305 -80 -663 -44 -357 -80 -658 -80 -667 0 -16 -14 -18 -151 -18
l-152 0 5 33 c3 17 41 323 84 679 l79 648 148 0 c111 0 147 -3 147 -12z m970
10 c0 -2 -7 -57 -15 -123 -8 -65 -15 -121 -15 -122 0 -2 -55 -3 -123 -3 -84 0
-129 -4 -140 -13 -15 -10 -29 -102 -85 -555 l-66 -542 -149 0 -149 0 6 38 c9
54 126 1011 126 1027 0 36 -29 45 -149 45 l-117 0 15 125 15 125 423 0 c233 0
423 -1 423 -2z m404 -100 c-43 -353 -48 -416 -35 -432 10 -12 31 -16 80 -16
36 0 72 4 79 9 18 11 26 52 58 314 l27 227 149 0 149 0 -6 -32 c-3 -18 -39
-314 -80 -658 -42 -344 -78 -635 -80 -647 -5 -23 -8 -23 -150 -23 -144 0 -145
0 -145 23 0 12 13 127 30 256 21 166 27 239 19 252 -8 16 -22 19 -90 19 -73 0
-80 -2 -89 -22 -5 -13 -20 -122 -35 -243 -14 -121 -29 -235 -32 -252 l-5 -33
-144 0 c-142 0 -144 0 -144 22 0 12 36 316 80 675 44 359 80 655 80 658 0 3
67 5 148 5 l149 0 -13 -102z m8081 -620 c-8 -92 -153 -1281 -161 -1327 l-5
-34 -305 5 c-167 3 -307 8 -310 11 -7 6 23 274 32 289 3 4 94 8 202 8 289 0
281 -8 323 335 42 342 45 385 25 423 -29 56 -54 62 -261 62 l-185 0 0 38 c0
20 7 84 15 142 8 58 15 108 15 113 0 4 140 7 311 7 l311 0 -7 -72z m-7705
-838 c0 -15 7 -20 26 -20 29 0 29 5 8 -147 l-6 -43 -107 0 c-138 0 -149 -4
-161 -49 -5 -20 -34 -245 -65 -501 -31 -256 -58 -477 -61 -492 l-6 -28 -140 0
-140 0 6 38 c3 20 31 237 61 482 30 245 57 459 60 475 4 19 1 37 -9 50 -13 18
-26 20 -130 19 -64 0 -116 3 -116 7 0 10 19 157 26 197 l5 32 374 0 c368 0
375 0 375 -20z"/>
<path d="M7899 3667 c-55 -30 -104 -93 -124 -160 -22 -80 -178 -1383 -171
-1440 11 -103 77 -168 176 -175 50 -4 66 0 111 24 61 34 104 88 124 158 16 54
175 1329 175 1399 0 89 -44 168 -111 203 -44 22 -128 18 -180 -9z m133 -172
c5 -19 -20 -252 -73 -690 -86 -703 -92 -735 -145 -755 -37 -15 -54 3 -54 56 0
37 138 1212 156 1325 3 20 14 50 25 68 16 27 25 32 51 29 26 -2 33 -9 40 -33z"/>
<path d="M13763 3646 c-17 -8 -37 -24 -43 -37 -7 -12 -27 -139 -46 -283 -39
-299 -37 -317 25 -343 42 -18 149 -13 202 10 58 25 126 94 159 161 39 79 60
243 41 313 -18 65 -70 134 -121 160 -58 30 -172 40 -217 19z m148 -159 c29
-22 42 -61 41 -124 -2 -89 -20 -141 -68 -190 -42 -45 -74 -56 -74 -25 0 9 9
87 20 172 11 85 20 161 20 168 0 15 40 15 61 -1z"/>
<path d="M6173 3652 c-32 -10 -62 -38 -68 -64 -3 -13 -21 -144 -39 -293 -37
-302 -36 -320 23 -345 45 -18 165 -9 216 17 90 47 162 153 185 272 13 69 13
196 0 243 -16 56 -69 120 -121 146 -48 24 -156 37 -196 24z m129 -163 c90 -48
43 -335 -61 -379 -18 -7 -34 -11 -36 -8 -5 4 31 327 41 376 5 24 24 28 56 11z"/>
<path d="M1354 2692 c-154 -46 -263 -149 -312 -297 -28 -83 -106 -707 -100
-800 9 -135 73 -232 195 -292 69 -34 85 -38 173 -41 116 -5 188 9 272 51 58
28 155 114 186 162 10 17 11 13 7 -30 -11 -92 -8 -136 9 -153 14 -14 45 -18
185 -20 165 -3 169 -3 196 20 24 21 29 35 38 116 6 51 14 92 18 92 4 0 10 -37
14 -82 8 -94 24 -133 57 -141 13 -4 354 -6 758 -6 622 0 738 2 756 14 16 10
27 36 40 90 l18 75 63 0 63 0 0 -67 c0 -38 4 -73 8 -79 18 -28 56 -34 215 -34
147 0 167 2 188 19 20 16 23 27 21 72 -4 101 -102 1274 -108 1291 -14 46 -25
48 -235 48 -231 0 -225 3 -258 -103 -10 -35 -87 -271 -171 -525 -150 -459
-152 -462 -170 -440 -17 22 -25 23 -195 26 l-177 3 6 31 c3 17 6 46 6 64 l0
34 84 0 c99 0 133 10 146 44 13 34 42 290 35 309 -10 25 -53 37 -134 37 l-78
0 4 33 c2 17 6 47 9 65 l5 32 174 0 c223 0 220 -2 240 150 8 58 15 128 15 157
0 86 14 83 -408 83 l-363 0 -24 -25 c-14 -13 -25 -32 -26 -42 0 -10 -6 -58
-13 -108 l-12 -90 -26 55 c-53 114 -139 180 -258 199 -36 6 -167 11 -291 11
-277 0 -266 5 -281 -120 -13 -117 -15 -119 -43 -64 -34 65 -116 139 -184 166
-78 30 -250 35 -337 10z m291 -74 c76 -25 137 -78 169 -148 15 -35 20 -65 20
-137 0 -51 -2 -95 -5 -97 -2 -2 -66 -6 -141 -8 l-137 -5 5 56 c9 97 -44 149
-120 117 -20 -8 -42 -28 -51 -46 -20 -38 -99 -659 -90 -705 17 -90 125 -101
169 -17 16 32 37 157 30 177 -3 8 -14 17 -25 20 -22 7 -22 1 -7 121 l11 94
169 0 c93 0 167 -3 165 -7 -3 -5 -12 -69 -21 -143 -37 -303 -57 -363 -149
-446 -86 -78 -172 -107 -310 -106 -96 1 -168 26 -227 79 -51 46 -73 89 -84
164 -7 46 61 651 84 756 15 64 66 157 106 193 117 102 290 137 439 88z m879
-8 c54 -16 129 -90 157 -153 66 -153 17 -377 -108 -494 l-55 -52 42 -276 c23
-152 40 -278 38 -280 -2 -2 -64 -5 -140 -7 l-136 -3 -6 35 c-2 19 -15 131 -27
248 -16 150 -27 218 -37 229 -21 20 -55 12 -68 -17 -6 -14 -24 -129 -39 -256
l-28 -232 -136 -4 c-75 -3 -137 -4 -139 -3 -1 1 6 65 17 141 11 76 29 222 41
324 11 102 27 232 35 290 8 58 17 132 20 165 11 99 35 298 41 334 l5 33 242
-5 c146 -3 257 -9 281 -17z m1022 -2 c-3 -13 -11 -67 -17 -120 l-12 -98 -186
0 c-102 0 -192 -4 -199 -9 -9 -5 -20 -53 -29 -127 l-15 -118 23 -19 c21 -17
34 -18 111 -12 78 6 88 5 88 -10 0 -14 -4 -47 -26 -192 l-5 -33 -103 0 c-71 0
-107 -4 -114 -12 -6 -7 -16 -66 -23 -132 -13 -113 -12 -119 6 -132 14 -11 61
-14 198 -14 l179 0 -6 -32 c-3 -18 -11 -69 -17 -113 -6 -44 -12 -81 -12 -82
-1 -1 -152 -3 -335 -5 -326 -3 -332 -3 -332 17 0 11 18 164 41 340 22 176 50
410 63 520 13 110 30 246 37 303 l12 102 340 0 339 0 -6 -22z m698 6 c3 -9 6
-36 6 -60 0 -25 20 -290 45 -590 25 -299 45 -559 45 -578 l0 -34 -132 -4 c-73
-2 -135 -3 -137 -1 -3 2 -5 37 -6 77 -1 104 -4 106 -135 106 -82 0 -110 -3
-120 -15 -6 -8 -20 -46 -30 -86 -10 -39 -20 -72 -22 -74 -3 -3 -204 -8 -245
-6 l-22 1 24 73 c13 39 105 322 205 627 99 305 183 561 185 568 3 9 46 12 169
12 140 0 165 -2 170 -16z m-2767 -350 c-6 -60 -4 -67 18 -90 24 -24 27 -24
195 -24 170 0 170 0 170 -22 l0 -23 -220 0 c-216 0 -221 0 -216 20 2 11 8 52
12 90 8 80 18 115 35 115 9 0 10 -19 6 -66z m1233 -345 c-28 -237 -42 -346
-47 -369 -5 -16 -16 38 -34 155 l-28 180 28 22 c15 12 40 40 56 62 15 23 29
40 31 38 2 -2 -1 -41 -6 -88z m-1296 -178 c-2 -9 -6 -33 -9 -53 -4 -24 -11
-38 -20 -38 -17 0 -18 15 -9 83 6 40 9 44 24 35 9 -6 16 -18 14 -27z"/>
<path d="M2257 2376 c-13 -14 -24 -69 -43 -223 -8 -68 3 -83 66 -83 38 0 55 6
81 27 89 76 92 250 3 283 -37 15 -90 12 -107 -4z m91 -126 c2 -45 -1 -60 -18
-78 -11 -12 -24 -22 -28 -22 -4 0 -4 36 2 80 7 66 12 80 25 78 12 -2 17 -17
19 -58z"/>
<path d="M3986 2177 c-11 -8 -34 -79 -66 -207 -52 -207 -52 -224 -4 -236 34
-9 113 1 127 15 8 8 11 70 9 208 -2 108 -5 201 -8 205 -12 19 -42 27 -58 15z
m-10 -365 c-11 -10 -14 3 -8 33 l7 30 3 -28 c2 -16 1 -31 -2 -35z"/>
</g>
</svg>
